<svg xmlns="http://www.w3.org/2000/svg" width="512" height="512" viewBox="0 0 512 512">
    <defs>
        <linearGradient id="icons-vector-a" x1="0%" x2="100%" y1="48.128%" y2="48.128%">
            <stop offset="0%" stop-color="#44BAEC"/>
            <stop offset="100%" stop-color="#EE0CEB"/>
        </linearGradient>
    </defs>
    <path fill="url(#icons-vector-a)" fill-rule="evenodd"
          d="M256,376 C189.72583,376 136,322.27417 136,256 C136,189.72583 189.72583,136 256,136 C322.27417,136 376,189.72583 376,256 C376,322.27417 322.27417,376 256,376 Z M256,512 C114.615104,512 0,397.384896 0,256 C0,114.615104 114.615104,0 256,0 C397.384896,0 512,114.615104 512,256 C512,397.384896 397.384896,512 256,512 Z M331.710382,406.013737 L331.710397,406.01373 C341.362191,417.038022 355.539709,424 371.343284,424 C400.424785,424 424,400.424785 424,371.343284 C424,355.539709 417.038022,341.362191 406.013737,331.710382 C417.518492,308.959599 424,283.236718 424,256 C424,228.763282 417.518492,203.040401 406.01373,180.289603 C417.038022,170.637809 424,156.460291 424,140.656716 C424,111.575215 400.424785,88 371.343284,88 C355.539709,88 341.362191,94.9619785 331.710382,105.986263 C308.959599,94.481508 283.236718,88 256,88 C228.763282,88 203.040401,94.481508 180.289603,105.98627 C170.637809,94.9619785 156.460291,88 140.656716,88 C111.575215,88 88,111.575215 88,140.656716 C88,156.460291 94.9619785,170.637809 105.986263,180.289618 C94.481508,203.040401 88,228.763282 88,256 C88,283.236718 94.481508,308.959599 105.98627,331.710397 C94.9619785,341.362191 88,355.539709 88,371.343284 C88,400.424785 111.575215,424 140.656716,424 C156.460291,424 170.637809,417.038022 180.289618,406.013737 C203.040401,417.518492 228.763282,424 256,424 C283.236718,424 308.959599,417.518492 331.710382,406.013737 Z"/>
</svg>
