<?xml version="1.0" standalone="no"?>
<!DOCTYPE svg PUBLIC "-//W3C//DTD SVG 20010904//EN"
        "http://www.w3.org/TR/2001/REC-SVG-20010904/DTD/svg10.dtd">
<svg version="1.0" xmlns="http://www.w3.org/2000/svg"
     width="1850.000000pt" height="1850.000000pt" viewBox="0 0 1850.000000 1850.000000"
     preserveAspectRatio="xMidYMid meet">

    <g transform="translate(0.000000,1850.000000) scale(0.100000,-0.100000)"
       fill="#000000" stroke="none">
        <path d="M9070 18493 c-1615 -25 -3228 -493 -4625 -1341 -127 -77 -427 -273
-449 -293 -5 -4 24 -24 63 -44 309 -155 611 -462 750 -763 14 -29 28 -52 32
-52 4 0 78 44 165 99 1068 664 2245 1055 3544 1177 328 30 1275 29 1408 -3
l22 -5 0 601 0 601 -25 0 c-13 0 -102 4 -197 10 -196 10 -488 16 -688 13z"/>
        <path d="M10030 17866 c0 -585 0 -594 20 -599 20 -5 20 0 20 594 0 592 0 599
-20 599 -20 0 -20 -7 -20 -594z"/>
        <path d="M1500 18328 c-348 -36 -673 -197 -922 -456 -206 -215 -341 -481 -395
-782 -23 -128 -23 -372 0 -500 54 -301 189 -567 395 -782 259 -270 579 -423
956 -459 266 -25 563 33 812 159 176 89 386 267 509 431 401 533 401 1269 0
1802 -123 164 -333 342 -509 431 -161 81 -361 139 -545 158 -117 11 -179 11
-301 -2z"/>
        <path d="M1598 14443 c-372 -539 -736 -1236 -986 -1888 -669 -1744 -790 -3673
-347 -5500 230 -948 636 -1906 1160 -2735 113 -179 236 -360 245 -360 3 0 21
30 39 68 143 292 448 600 743 748 38 19 68 38 66 42 -2 4 -51 84 -109 177
-609 975 -1002 2079 -1148 3225 -49 382 -56 501 -56 1030 0 529 7 648 56 1030
148 1165 555 2295 1181 3280 l86 135 -88 46 c-158 83 -267 166 -410 309 -144
143 -226 252 -310 412 l-47 90 -75 -109z"/>
        <path d="M10810 13358 c-101 -167 -381 -629 -623 -1028 -850 -1401 -936 -1544
-941 -1555 -8 -21 -43 33 -305 470 l-36 59 -3 -919 c-1 -505 1 -922 5 -926 17
-17 319 -189 331 -189 12 0 1169 656 2332 1322 168 96 308 173 313 171 9 -5 9
-3010 -1 -3016 -6 -4 -404 221 -2301 1303 -179 102 -330 186 -336 188 -7 2
-86 -40 -176 -91 l-164 -95 -2 -938 -2 -939 24 40 c199 329 312 508 320 509 5
1 97 -143 203 -319 107 -176 334 -552 506 -835 172 -283 479 -788 681 -1123
l369 -607 1338 0 1338 0 0 4410 0 4410 -1343 0 -1343 0 -184 -302z"/>
        <path d="M8850 10438 c0 -632 3 -958 10 -958 14 0 14 1879 0 1900 -6 10 -10
-321 -10 -942z"/>
        <path d="M8858 9024 c-5 -4 -8 -440 -8 -968 1 -629 4 -955 10 -944 12 20 9
1924 -2 1912z"/>
        <path d="M1500 3148 c-348 -36 -673 -197 -922 -456 -206 -215 -341 -481 -395
-782 -23 -128 -23 -372 0 -500 54 -301 189 -567 395 -782 259 -270 579 -423
956 -459 266 -25 563 33 812 159 176 89 386 267 509 431 401 533 401 1269 0
1802 -123 164 -333 342 -509 431 -161 81 -361 139 -545 158 -117 11 -179 11
-301 -2z"/>
        <path d="M4809 2458 c-69 -150 -194 -321 -335 -460 -139 -136 -245 -214 -408
-299 l-89 -47 166 -110 c325 -218 633 -395 1012 -582 1124 -556 2286 -862
3560 -940 225 -14 862 -14 1055 -1 80 6 160 11 178 11 l32 0 0 601 0 601 -22
-5 c-133 -32 -1080 -33 -1408 -3 -1039 98 -1946 351 -2855 796 -273 134 -606
322 -841 476 -19 13 -22 11 -45 -38z"/>
        <path d="M10048 1233 c-17 -4 -18 -41 -18 -599 0 -587 0 -594 20 -594 20 0 20
7 20 600 0 330 -1 599 -2 599 -2 -1 -11 -3 -20 -6z"/>
    </g>
</svg>
